Coordinates
version=1
nRows=29
nColumns=38
inDegrees=no

Units are S.I. units (second, meters, Newtons, ...)
If the header above contains a line with 'inDegrees', this indicates whether rotational values are in degrees (yes) or radians (no).

endheader
time	pelvis_tilt	pelvis_list	pelvis_rotation	pelvis_tx	pelvis_ty	pelvis_tz	hip_flexion_r	hip_adduction_r	hip_rotation_r	knee_angle_r	ankle_angle_r	subtalar_angle_r	mtp_angle_r	hip_flexion_l	hip_adduction_l	hip_rotation_l	knee_angle_l	ankle_angle_l	subtalar_angle_l	mtp_angle_l	lumbar_extension	lumbar_bending	lumbar_rotation	arm_flex_r	arm_add_r	arm_rot_r	elbow_flex_r	pro_sup_r	wrist_flex_r	wrist_dev_r	arm_flex_l	arm_add_l	arm_rot_l	elbow_flex_l	pro_sup_l	wrist_flex_l	wrist_dev_l
0.74	0.0772248	0.0375461	0.0628677	1.01418	1.01576	-0.521636	0.25957	-0.222769	-0.280064	-1.31144	0.102307	0.0473849	-0.000373762	0.12207	0.0321625	-0.0545786	-0.673471	0.479803	0.0428336	-0.000193839	-0.34208	-0.0626019	-0.0506493	-0.394346	-0.27799	0.018939	1.36834	1.83014	-0.00221318	0.0181769	-0.253337	-0.197189	-0.0624313	2.03717	1.56554	0.0209886	0.00443531
0.75	0.0718609	0.0276374	0.0600517	1.01447	1.01879	-0.521555	0.289572	-0.21212	-0.283125	-1.28675	0.105595	0.0473849	-0.000373762	0.0915112	0.0215967	-0.0545128	-0.644576	0.473088	0.0428336	-0.000193839	-0.334039	-0.050067	-0.059419	-0.42239	-0.288796	0.00711661	1.37007	1.81901	-0.00221318	0.0181769	-0.234512	-0.190199	-0.0466281	2.07	1.5579	0.0209886	0.00443531
0.76	0.0651474	0.0175029	0.0579741	1.01501	1.02225	-0.521353	0.317159	-0.201055	-0.289949	-1.25358	0.107577	0.0473849	-0.000373762	0.0612	0.0107799	-0.0546987	-0.612686	0.458778	0.0428336	-0.000193839	-0.324102	-0.0373308	-0.0686903	-0.453367	-0.299342	-0.00490461	1.38088	1.79848	-0.00221318	0.0181769	-0.219153	-0.18365	-0.028609	2.10938	1.54747	0.0209886	0.00443531
0.77	0.057484	0.00750848	0.0564204	1.01579	1.02608	-0.521006	0.341752	-0.1898	-0.30007	-1.21195	0.108496	0.0473849	-0.000373762	0.0312082	-0.000115769	-0.0554744	-0.578609	0.436497	0.0428336	-0.000193839	-0.312746	-0.02486	-0.0783719	-0.486108	-0.308897	-0.0173702	1.39767	1.77065	-0.00221318	0.0181769	-0.206932	-0.17782	-0.00864251	2.15279	1.53692	0.0209886	0.00443531
0.78	0.0493611	-0.00209271	0.0552044	1.01681	1.03023	-0.520498	0.362725	-0.178386	-0.312718	-1.1619	0.108591	0.0473849	-0.000373762	0.00151792	-0.0109302	-0.0571097	-0.543188	0.406173	0.0428336	-0.000193839	-0.30061	-0.0129972	-0.088295	-0.519532	-0.31682	-0.0306572	1.41758	1.73857	-0.00221318	0.0181769	-0.197558	-0.172865	0.0128689	2.19795	1.52862	0.0209886	0.00443531
0.79	0.0413155	-0.0111325	0.0541872	1.01803	1.03466	-0.519835	0.379427	-0.166662	-0.326823	-1.1035	0.108121	0.0473849	-0.000373762	-0.0279291	-0.0215287	-0.059765	-0.507361	0.368125	0.0428336	-0.000193839	-0.28847	-0.00190971	-0.0981189	-0.552857	-0.32259	-0.0453165	1.43836	1.70563	-0.00221318	0.0181769	-0.190707	-0.168851	0.0355579	2.24296	1.52436	0.0209886	0.00443531
0.8	0.033846	-0.0194517	0.0533066	1.01943	1.03932	-0.51904	0.391287	-0.154402	-0.341064	-1.03692	0.107358	0.0473849	-0.000373762	-0.0571242	-0.0317452	-0.0634402	-0.472132	0.323028	0.0428336	-0.000193839	-0.277027	0.00831141	-0.107579	-0.585468	-0.325896	-0.0617179	1.45839	1.67469	-0.00221318	0.0181769	-0.186142	-0.165801	0.0589676	2.28637	1.52502	0.0209886	0.00443531
0.81	0.0273401	-0.0268638	0.0525885	1.02099	1.04411	-0.518143	0.397913	-0.141424	-0.353972	-0.96254	0.106585	0.0473849	-0.000373762	-0.0859028	-0.0413548	-0.067963	-0.438586	0.27188	0.0428336	-0.000193839	-0.26678	0.0175819	-0.116578	-0.616871	-0.326648	-0.0799184	1.47669	1.64764	-0.00221318	0.0181769	-0.183728	-0.163731	0.0825459	2.32713	1.53063	0.0209886	0.00443531
0.82	0.0220336	-0.0331546	0.0521407	1.02271	1.04893	-0.51718	0.399159	-0.12768	-0.364098	-0.881067	0.10609	0.0473849	-0.000373762	-0.113888	-0.0500875	-0.0730081	-0.407913	0.215962	0.0428336	-0.000193839	-0.257969	0.0258022	-0.12516	-0.646695	-0.32492	-0.0996988	1.49282	1.6254	-0.00221318	0.0181769	-0.183365	-0.162677	0.105715	2.3645	1.54042	0.0209886	0.00443531
0.83	0.018009	-0.0381206	0.0521297	1.02458	1.05364	-0.516197	0.395166	-0.113307	-0.370245	-0.793658	0.106158	0.0473849	-0.000373762	-0.140478	-0.0576841	-0.078143	-0.381432	0.156798	0.0428336	-0.000193839	-0.250615	0.0328914	-0.133392	-0.674736	-0.320864	-0.120724	1.50682	1.60807	-0.00221318	0.0181769	-0.184887	-0.162709	0.127986	2.39799	1.55312	0.0209886	0.00443531
0.84	0.0152572	-0.041647	0.0527388	1.02657	1.05811	-0.515246	0.386335	-0.0986065	-0.371701	-0.702035	0.107054	0.0473849	-0.000373762	-0.164922	-0.0639899	-0.0828857	-0.360585	0.0960864	0.0428336	-0.000193839	-0.244657	0.0388938	-0.141136	-0.701066	-0.314595	-0.142802	1.51915	1.59518	-0.00221318	0.0181769	-0.18793	-0.163913	0.149108	2.42722	1.56727	0.0209886	0.00443531
0.85	0.0136796	-0.0437284	0.0541422	1.02865	1.06222	-0.514373	0.373343	-0.0840184	-0.368398	-0.608497	0.108973	0.0473849	-0.000373762	-0.186379	-0.0689952	-0.0867643	-0.346794	0.0355171	0.0428336	-0.000193839	-0.239966	0.043957	-0.148168	-0.725847	-0.30625	-0.165764	1.53048	1.58592	-0.00221318	0.0181769	-0.192048	-0.166382	0.168931	2.45199	1.58161	0.0209886	0.00443531
0.86	0.0131525	-0.0445184	0.0564562	1.03077	1.06582	-0.513618	0.357095	-0.070016	-0.360936	-0.515872	0.111985	0.0473849	-0.000373762	-0.204052	-0.0728835	-0.0894011	-0.341325	-0.0233698	0.0428336	-0.000193839	-0.236438	0.0483666	-0.154138	-0.749285	-0.295996	-0.189487	1.54157	1.57944	-0.00221318	0.0181769	-0.196756	-0.170191	0.187372	2.47219	1.5952	0.0209886	0.00443531
0.87	0.0135095	-0.0442918	0.0597196	1.03287	1.06882	-0.513	0.338698	-0.0570394	-0.350462	-0.427342	0.115955	0.0473849	-0.000373762	-0.217265	-0.0760003	-0.0905831	-0.345099	-0.0793602	0.0428336	-0.000193839	-0.233947	0.0524345	-0.158815	-0.771378	-0.284177	-0.213621	1.55302	1.575	-0.00221318	0.0181769	-0.20175	-0.175372	0.204201	2.48788	1.60755	0.0209886	0.00443531
0.88	0.0145591	-0.0434117	0.0638696	1.0349	1.07113	-0.512512	0.319398	-0.0454137	-0.33842	-0.346221	0.12051	0.0473849	-0.000373762	-0.22554	-0.0788148	-0.0903368	-0.35858	-0.131593	0.0428336	-0.000193839	-0.232343	0.0564402	-0.162155	-0.791831	-0.271369	-0.237513	1.56518	1.57214	-0.00221318	0.0181769	-0.206999	-0.181907	0.218983	2.49931	1.61853	0.0209886	0.00443531
0.89	0.0161481	-0.0423158	0.0687185	1.03683	1.07268	-0.512127	0.300463	-0.035262	-0.326238	-0.275714	0.125085	0.0473849	-0.000373762	-0.228689	-0.0818912	-0.0889808	-0.381768	-0.179439	0.0428336	-0.000193839	-0.231531	0.0606517	-0.164169	-0.810172	-0.258298	-0.260374	1.5782	1.57069	-0.00221318	0.0181769	-0.212662	-0.18972	0.231217	2.50679	1.62819	0.0209886	0.00443531
0.9	0.0181457	-0.0414297	0.0739863	1.0386	1.07341	-0.511788	0.283104	-0.0265217	-0.315045	-0.21862	0.128982	0.0473849	-0.000373762	-0.2268	-0.0858029	-0.0870766	-0.414184	-0.222386	0.0428336	-0.000193839	-0.231418	0.0652355	-0.165024	-0.825722	-0.245851	-0.281233	1.59196	1.57071	-0.00221318	0.0181769	-0.219118	-0.19869	0.240298	2.51075	1.63669	0.0209886	0.00443531
0.91	0.0204717	-0.0411012	0.0793285	1.04018	1.07328	-0.511423	0.268364	-0.0189308	-0.305476	-0.177117	0.131516	0.0473849	-0.000373762	-0.22022	-0.0911106	-0.0853396	-0.455002	-0.259813	0.0428336	-0.000193839	-0.231968	0.0703362	-0.164865	-0.837779	-0.234917	-0.299185	1.60626	1.57227	-0.00221318	0.0181769	-0.226783	-0.208665	0.245693	2.51163	1.64425	0.0209886	0.00443531
0.92	0.0230762	-0.041678	0.0843847	1.04155	1.07228	-0.510959	0.257052	-0.012123	-0.297636	-0.152607	0.132169	0.0473849	-0.000373762	-0.209471	-0.0982861	-0.0844989	-0.5032	-0.290815	0.0428336	-0.000193839	-0.2332	0.0760382	-0.163769	-0.845719	-0.226275	-0.313526	1.62081	1.57538	-0.00221318	0.0181769	-0.235986	-0.219475	0.24703	2.50978	1.65099	0.0209886	0.00443531
0.93	0.0259403	-0.0434152	0.0888277	1.04269	1.07038	-0.510333	0.249697	-0.0057048	-0.291233	-0.145602	0.130742	0.0473849	-0.000373762	-0.195134	-0.107665	-0.0851398	-0.557682	-0.314162	0.0428336	-0.000193839	-0.235146	0.0823761	-0.161754	-0.849029	-0.220528	-0.323797	1.63528	1.57986	-0.00221318	0.0181769	-0.2469	-0.230931	0.244133	2.50536	1.65684	0.0209886	0.00443531
0.94	0.0290471	-0.0464462	0.0924072	1.04359	1.06755	-0.509505	0.24651	0.000668701	-0.285796	-0.155673	0.127518	0.0473849	-0.000373762	-0.17775	-0.119392	-0.0875683	-0.617372	-0.328448	0.0428336	-0.000193839	-0.237839	0.0893271	-0.158803	-0.847295	-0.218074	-0.329773	1.64925	1.58529	-0.00221318	0.0181769	-0.259507	-0.242815	0.237021	2.49834	1.66159	0.0209886	0.00443531
0.95	0.032395	-0.0507774	0.0949764	1.04422	1.06378	-0.508461	0.247369	0.00724504	-0.280921	-0.181509	0.123419	0.0473849	-0.000373762	-0.157757	-0.133392	-0.0917279	-0.681241	-0.332423	0.0428336	-0.000193839	-0.241303	0.0968131	-0.154889	-0.840181	-0.219078	-0.331446	1.66221	1.59103	-0.00221318	0.0181769	-0.273582	-0.25487	0.225909	2.48841	1.66489	0.0209886	0.00443531
0.96	0.035998	-0.0562993	0.0964988	1.04457	1.0591	-0.507217	0.251841	0.0141553	-0.276399	-0.221072	0.120079	0.0473849	-0.000373762	-0.135482	-0.149347	-0.097191	-0.748261	-0.325417	0.0428336	-0.000193839	-0.245573	0.104717	-0.149974	-0.827415	-0.223462	-0.328989	1.67349	1.59632	-0.00221318	0.0181769	-0.288704	-0.266793	0.21118	2.47497	1.66647	0.0209886	0.00443531
0.97	0.0399022	-0.0628045	0.0970363	1.04465	1.05363	-0.505817	0.259201	0.0214218	-0.272215	-0.271795	0.119678	0.0473849	-0.000373762	-0.111166	-0.166718	-0.103233	-0.817343	-0.307686	0.0428336	-0.000193839	-0.250714	0.1129	-0.143993	-0.808798	-0.230898	-0.32275	1.68231	1.60042	-0.00221318	0.0181769	-0.304288	-0.278249	0.193375	2.45724	1.66631	0.0209886	0.00443531
0.98	0.0442065	-0.0700051	0.0967175	1.04447	1.04764	-0.504323	0.26843	0.0289808	-0.268425	-0.330705	0.12447	0.0473849	-0.000373762	-0.0850267	-0.18477	-0.108979	-0.887267	-0.280507	0.0428336	-0.000193839	-0.256827	0.121208	-0.13682	-0.784247	-0.240805	-0.313258	1.68788	1.60279	-0.00221318	0.0181769	-0.31964	-0.288896	0.173172	2.43438	1.66481	0.0209886	0.00443531
0.99	0.0490679	-0.0775769	0.0957044	1.04405	1.04151	-0.502802	0.278189	0.0366979	-0.265028	-0.394479	0.136147	0.0473849	-0.000373762	-0.0573415	-0.202614	-0.113572	-0.956651	-0.245989	0.0428336	-0.000193839	-0.264062	0.129446	-0.128251	-0.753868	-0.252374	-0.301221	1.68952	1.60322	-0.00221318	0.0181769	-0.334032	-0.298432	0.151384	2.40564	1.66283	0.0209886	0.00443531
1	0.0546481	-0.0851366	0.0941625	1.04337	1.03563	-0.501328	0.286834	0.0443907	-0.261895	-0.459534	0.15531	0.0473849	-0.000373762	-0.0285316	-0.219271	-0.116326	-1.02397	-0.20665	0.0428336	-0.000193839	-0.272621	0.137365	-0.118016	-0.718023	-0.264617	-0.287493	1.68686	1.60179	-0.00221318	0.0181769	-0.346809	-0.306637	0.12893	2.37065	1.66159	0.0209886	0.00443531
1.01	0.0610917	-0.0922366	0.0922368	1.04243	1.03029	-0.499978	0.292589	0.0518283	-0.258784	-0.522236	0.181307	0.0473849	-0.000373762	0.0008554	-0.233745	-0.116832	-1.08759	-0.164967	0.0428336	-0.000193839	-0.282673	0.144638	-0.105872	-0.677352	-0.276491	-0.272963	1.68001	1.59897	-0.00221318	0.0181769	-0.357529	-0.313401	0.106746	2.32959	1.66246	0.0209886	0.00443531
1.02	0.068417	-0.0983609	0.0900471	1.04127	1.02565	-0.498809	0.293838	0.0586981	-0.255405	-0.579226	0.21246	0.0473849	-0.000373762	0.030256	-0.245086	-0.114983	-1.1459	-0.123036	0.0428336	-0.000193839	-0.294195	0.150797	-0.0918361	-0.632682	-0.287102	-0.258302	1.66964	1.59546	-0.00221318	0.0181769	-0.366185	-0.318714	0.0855778	2.28342	1.66665	0.0209886	0.00443531
